<svg height="512pt" viewBox="0 -7 512 512" width="512pt" xmlns="http://www.w3.org/2000/svg"><path d="m56.539062 225.589844h402.019532v49.222656h-402.019532zm0 0" fill="#ff8e8e"/><path d="m56.539062 348.492188h402.019532v49.222656h-402.019532zm0 0" fill="#ff6c6c"/><path d="m82.097656 207.5625v284.507812c0 2.847657-2.3125 5.164063-5.164062 5.164063h-71.769532c-2.851562 0-5.164062-2.316406-5.164062-5.164063v-284.507812c0-18.660156 15.121094-33.78125 33.78125-33.78125h14.53125c18.664062 0 33.785156 15.121094 33.785156 33.78125zm0 0" fill="#ff5b5b"/><path d="m82.097656 207.5625v284.507812c0 2.847657-2.3125 5.164063-5.164062 5.164063h-35.878906v-323.453125h7.257812c18.664062 0 33.785156 15.121094 33.785156 33.78125zm0 0" fill="#ff3939"/><path d="m56.546875 231.78125v20.65625c0 8.5625-6.941406 15.492188-15.492187 15.492188-8.5625 0-15.492188-6.929688-15.492188-15.492188v-20.65625c0-8.550781 6.929688-15.492188 15.492188-15.492188 8.550781 0 15.492187 6.941407 15.492187 15.492188zm0 0" fill="#ffe9cc"/><path d="m56.546875 231.78125v20.65625c0 8.5625-6.941406 15.492188-15.492187 15.492188v-51.640626c8.550781 0 15.492187 6.941407 15.492187 15.492188zm0 0" fill="#ffd399"/><path d="m512 207.5625v284.507812c0 2.847657-2.3125 5.164063-5.164062 5.164063h-71.769532c-2.851562 0-5.164062-2.316406-5.164062-5.164063v-284.507812c0-18.660156 15.121094-33.78125 33.785156-33.78125h14.53125c18.660156 0 33.78125 15.121094 33.78125 33.78125zm0 0" fill="#ff5b5b"/><path d="m512 207.5625v284.507812c0 2.847657-2.3125 5.164063-5.164062 5.164063h-35.890626v-323.453125h7.273438c18.660156 0 33.78125 15.121094 33.78125 33.78125zm0 0" fill="#ff3939"/><path d="m470.953125 216.292969c-8.558594 0-15.492187 6.9375-15.492187 15.492187v20.65625c0 8.554688 6.933593 15.492188 15.492187 15.492188 8.554687 0 15.492187-6.9375 15.492187-15.492188v-20.65625c0-8.554687-6.9375-15.492187-15.492187-15.492187zm0 0" fill="#ffe9cc"/><path d="m486.445312 231.785156v20.65625c0 8.5625-6.941406 15.492188-15.492187 15.492188v-51.640625c8.550781 0 15.492187 6.9375 15.492187 15.492187zm0 0" fill="#ffd399"/><path d="m206.03125 126.820312-2.808594 4.285157c-4.699218 7.15625-14.304687 9.148437-21.449218 4.449219-7.15625-4.6875-9.152344-14.292969-4.453126-21.449219l2.808594-4.285157c3.535156-5.382812 3.976563-12.3125 1.160156-18.097656l-6.796874-13.953125c-1.363282-2.808593-2.457032-5.730469-3.253907-8.714843-2.675781-9.90625-2.21875-20.523438 1.425781-30.230469l10.8125-28.773438c3.003907-8.015625 11.9375-12.0625 19.945313-9.058593 8.011719 3.003906 12.0625 11.941406 9.054687 19.953124l-10.8125 28.773438c-1.753906 4.699219-1.507812 9.976562.683594 14.492188l2.363282 4.84375 4.429687 9.097656c7.570313 15.554687 6.382813 34.207031-3.109375 48.667968zm0 0" fill="#ff8e8e"/><path d="m209.140625 78.152344c7.570313 15.554687 6.382813 34.207031-3.109375 48.667968l-2.808594 4.285157c-4.699218 7.15625-14.304687 9.152343-21.449218 4.453125-7.15625-4.691406-9.152344-14.296875-4.453126-21.453125l2.808594-4.285157c3.535156-5.382812 3.976563-12.3125 1.160156-18.09375l-6.796874-13.953124c-1.363282-2.8125-2.457032-5.734376-3.253907-8.71875h33.472657zm0 0" fill="#ff6c6c"/><path d="m271.769531 126.820312-2.816406 4.285157c-4.691406 7.144531-14.296875 9.148437-21.453125 4.449219-7.148438-4.6875-9.140625-14.292969-4.453125-21.449219l2.8125-4.285157c3.53125-5.382812 3.976563-12.3125 1.15625-18.097656l-6.785156-13.953125c-1.375-2.808593-2.460938-5.730469-3.265625-8.714843-2.664063-9.90625-2.21875-20.523438 1.425781-30.230469l10.8125-28.773438c3.007813-8.015625 11.941406-12.0625 19.953125-9.058593 8.003906 3.003906 12.066406 11.941406 9.050781 19.953124l-10.804687 28.773438c-1.765625 4.699219-1.519532 9.976562.679687 14.492188l2.355469 4.84375 4.433594 9.097656c7.578125 15.554687 6.390625 34.207031-3.101563 48.667968zm0 0" fill="#ff8e8e"/><path d="m274.871094 78.152344c7.578125 15.554687 6.390625 34.207031-3.101563 48.667968l-2.816406 4.285157c-4.691406 7.148437-14.296875 9.152343-21.453125 4.453125-7.148438-4.691406-9.140625-14.296875-4.453125-21.453125l2.8125-4.285157c3.53125-5.382812 3.976563-12.3125 1.15625-18.09375l-6.785156-13.953124c-1.375-2.8125-2.460938-5.734376-3.265625-8.71875h33.472656zm0 0" fill="#ff6c6c"/><path d="m337.5 126.820312-2.8125 4.285157c-4.699219 7.15625-14.304688 9.148437-21.449219 4.449219-7.15625-4.6875-9.152343-14.292969-4.453125-21.449219l2.808594-4.285157c3.535156-5.382812 3.96875-12.3125 1.160156-18.097656l-6.796875-13.953125c-1.363281-2.808593-2.457031-5.730469-3.253906-8.714843-2.675781-9.90625-2.21875-20.523438 1.425781-30.230469l10.8125-28.773438c3.007813-8.015625 11.941406-12.0625 19.945313-9.058593 8.011719 3.003906 12.0625 11.941406 9.054687 19.953124l-10.8125 28.773438c-1.753906 4.699219-1.507812 9.976562.683594 14.492188l2.363281 4.84375 4.429688 9.097656c7.570312 15.554687 6.382812 34.207031-3.105469 48.667968zm0 0" fill="#ff8e8e"/><path d="m337.5 126.820312-2.8125 4.285157c-4.699219 7.15625-14.304688 9.148437-21.449219 4.449219-7.15625-4.6875-9.152343-14.292969-4.453125-21.449219l2.808594-4.285157c3.535156-5.382812 3.96875-12.3125 1.160156-18.097656l-6.796875-13.953125c-1.363281-2.808593-2.457031-5.730469-3.253906-8.714843h33.472656l4.429688 9.097656c7.570312 15.554687 6.382812 34.207031-3.105469 48.667968zm0 0" fill="#ff6c6c"/><path d="m292.589844 176.5625c-19.351563 0-35.039063 15.6875-35.039063 35.035156v209.398438c0 19.351562 15.6875 35.035156 35.035157 35.035156 19.351562 0 35.035156-15.683594 35.035156-35.035156v-209.398438c.003906-19.347656-15.683594-35.035156-35.03125-35.035156zm0 0" fill="#ffe1bb"/><path d="m292.589844 176.5625v279.472656c19.34375 0 35.03125-15.6875 35.03125-35.03125v-209.398437c0-19.359375-15.707032-35.042969-35.03125-35.042969zm0 0" fill="#ffd399"/><path d="m187.484375 211.601562v209.402344c0 19.34375-15.6875 35.03125-35.03125 35.03125-19.355469 0-35.042969-15.6875-35.042969-35.03125v-209.402344c0-19.355468 15.6875-35.042968 35.042969-35.042968 19.324219 0 35.03125 15.6875 35.03125 35.042968zm0 0" fill="#ffe1bb"/><path d="m187.484375 211.601562v209.402344c0 19.34375-15.6875 35.03125-35.03125 35.03125v-279.476562c19.324219 0 35.03125 15.6875 35.03125 35.042968zm0 0" fill="#ffd399"/><path d="m222.519531 176.558594c-19.347656 0-35.035156 15.6875-35.035156 35.042968v209.402344c0 19.34375 15.6875 35.03125 35.035156 35.03125 19.351563 0 35.03125-15.6875 35.03125-35.03125v-209.402344c0-19.355468-15.683593-35.042968-35.03125-35.042968zm0 0" fill="#ffc477"/><path d="m222.519531 176.558594v279.476562c19.351563 0 35.03125-15.6875 35.03125-35.03125v-209.402344c0-19.355468-15.683593-35.042968-35.03125-35.042968zm0 0" fill="#ffb655"/><path d="m397.6875 211.601562v209.402344c0 19.34375-15.675781 35.03125-35.03125 35.03125-19.34375 0-35.03125-15.6875-35.03125-35.03125v-209.402344c0-19.355468 15.6875-35.042968 35.03125-35.042968 19.347656 0 35.03125 15.6875 35.03125 35.042968zm0 0" fill="#ffc477"/><path d="m397.6875 211.601562v209.402344c0 19.34375-15.675781 35.03125-35.03125 35.03125v-279.476562c19.347656 0 35.03125 15.6875 35.03125 35.042968zm0 0" fill="#ffb655"/></svg>