<svg height="512pt" viewBox="0 -1 512.00004 512" width="512pt" xmlns="http://www.w3.org/2000/svg"><path d="m411.8125 156.433594c0 12.898437-10.46875 23.355468-23.367188 23.355468h-295.15625c-18.394531 0-51.539062-20.652343-51.539062-57.375 0-25.742187 15.894531-45.214843 36.378906-53.292968 17.402344-6.871094 38.128906-5.503906 55.234375 7.238281 4.742188-38.71875 37.734375-68.714844 77.738281-68.714844 36.589844 0 67.320313 25.101563 75.914063 59.019531 39.890625-10.570312 73.261719 29.78125 57.480469 66.402344h43.949218c10.675782 0 19.6875 7.167969 22.46875 16.953125.582032 2.039063.898438 4.191407.898438 6.414063zm0 0" fill="#a6e0ec"/><path d="m410.914062 150.019531h-283.648437c-18.390625 0-51.535156-20.652343-51.535156-57.375 0-7.605469.835937-15.589843 2.398437-23.523437 17.402344-6.871094 38.128906-5.503906 55.234375 7.238281 4.742188-38.71875 37.734375-68.714844 77.738281-68.714844 36.589844 0 67.320313 25.101563 75.914063 59.019531 39.890625-10.570312 73.261719 29.78125 57.480469 66.402344h43.949218c10.675782 0 19.6875 7.167969 22.46875 16.953125zm0 0" fill="#c2eaf2"/><path d="m504.355469 262.035156c0 8.625-6.996094 15.617188-15.621094 15.617188h-197.335937c-12.304688 0-34.460938-13.8125-34.460938-38.363282 0-16.820312 10.15625-29.648437 23.398438-35.253906 11.816406-5.007812 26.109374-4.28125 37.855468 4.464844 3.171875-25.894531 25.222656-45.9375 51.972656-45.9375 24.460938 0 45.011719 16.769531 50.753907 39.453125 26.667969-7.066406 48.976562 19.910156 38.425781 44.390625h29.390625c7.148437 0 13.164063 4.789062 15.027344 11.347656.386719 1.355469.59375 2.792969.59375 4.28125zm0 0" fill="#2cb3cd"/><path d="m503.761719 257.753906h-189.933594c-12.304687 0-34.460937-13.816406-34.460937-38.367187 0-4.667969.328124-9.886719.96875-15.351563 11.816406-5.007812 26.109374-4.28125 37.855468 4.464844 3.171875-25.894531 25.222656-45.9375 51.972656-45.9375 24.460938 0 45.011719 16.769531 50.753907 39.453125 26.667969-7.066406 48.976562 19.910156 38.425781 44.390625h29.390625c7.148437 0 13.164063 4.789062 15.027344 11.347656zm0 0" fill="#60c8dd"/><path d="m271.207031 495.277344h-14.269531c-4.222656 0-7.644531 3.421875-7.644531 7.648437 0 4.222657 3.421875 7.644531 7.644531 7.644531h14.269531c4.226563 0 7.648438-3.421874 7.648438-7.644531 0-4.226562-3.425781-7.648437-7.648438-7.648437zm0 0"/><path d="m342.574219 495.277344h-40.78125c-4.222657 0-7.644531 3.421875-7.644531 7.648437 0 4.222657 3.421874 7.644531 7.644531 7.644531h40.78125c4.222656 0 7.644531-3.421874 7.644531-7.644531 0-4.226562-3.421875-7.648437-7.644531-7.648437zm0 0"/><path d="m488.734375 238.757812h-19.410156c3.257812-24.792968-17.40625-47.46875-43.136719-45.378906-2.804688-7.328125-6.972656-13.894531-12.164062-19.441406 13.945312-20.289062-.496094-48.515625-25.578126-48.515625h-33.519531c4.0625-19.046875-2.464843-38.078125-15.050781-51.046875-12.71875-13.085938-30.15625-18.9375-47.527344-16.558594-11.859375-34.378906-44.296875-57.816406-81.246094-57.816406-39.476562 0-73.40625 26.84375-83.160156 64.078125-39.183594-19.546875-87.667968 5.554687-93.296875 49.71875-.53125 4.191406 2.425781 8.015625 6.617188 8.554687 4.191406.53125 8.023437-2.4375 8.554687-6.628906 4.699219-36.863281 48.433594-55.980468 78.980469-33.234375 2.183594 1.632813 5.066406 1.96875 7.574219.898438 2.507812-1.070313 4.253906-3.394531 4.578125-6.097657 4.332031-35.347656 34.480469-61.996093 70.152343-61.996093 32.378907 0 60.558594 21.898437 68.5 53.25 1.050782 4.148437 5.316407 6.597656 9.371094 5.503906 27.777344-7.292969 51.871094 14.636719 51.871094 39.894531 0 14.398438-6.761719 17.175782-2.742188 23.324219 1.417969 2.152344 3.8125 3.445313 6.394532 3.445313h43.949218c12.050782 0 19.5625 13.039062 13.703126 23.410156-23.414063-14.738282-54.117188-11.582032-74.058594 8.023437h-234.800782c-11.328124 0-31.546874-10.574219-40.019531-30.441406-1.660156-3.886719-6.144531-5.691406-10.039062-4.027344-3.875 1.652344-5.691407 6.148438-4.027344 10.03125 10.613281 24.875 35.835937 39.730469 54.085937 39.730469h223.515626c-1.539063 2.964844-2.835938 6.097656-3.863282 9.339844-29.488281-12.25-63.648437 9.039062-63.648437 42.511718 0 28.085938 24.9375 46.011719 42.105469 46.011719h197.335937c12.824219 0 23.265625-10.441406 23.265625-23.265625 0-12.835937-10.441406-23.277344-23.265625-23.277344zm0 31.25h-197.335937c-8.023438 0-26.8125-10.449218-26.8125-30.71875 0-25.71875 29.292968-39.351562 49.039062-24.660156 4.699219 3.511719 11.449219.601563 12.152344-5.199218 2.726562-22.339844 21.824218-39.222657 44.386718-39.222657 20.515626 0 38.3125 13.882813 43.339844 33.683594 1.074219 4.160156 5.292969 6.59375 9.371094 5.515625 20.636719-5.46875 37.429688 15.46875 29.453125 33.980469-2.179687 5.039062 1.527344 10.664062 7.023437 10.664062h29.382813c4.394531 0 7.972656 3.578125 7.972656 7.984375 0 4.394532-3.578125 7.972656-7.972656 7.972656zm0 0"/><path d="m374.835938 359.832031h-17.796876c-4.226562 0-7.648437 3.421875-7.648437 7.644531 0 4.226563 3.421875 7.648438 7.648437 7.648438h17.796876c9.265624 0 16.804687 7.539062 16.804687 16.800781 0 9.265625-7.539063 16.804688-16.804687 16.804688h-112.949219c-4.222657 0-7.644531 3.421875-7.644531 7.644531s3.421874 7.644531 7.644531 7.644531h112.949219c17.699218 0 32.09375-14.394531 32.09375-32.09375.003906-17.695312-14.394532-32.09375-32.09375-32.09375zm0 0"/><path d="m389.628906 449.929688h-203.902344c-4.230468 0-7.648437 3.414062-7.648437 7.648437 0 4.21875 3.417969 7.644531 7.648437 7.644531h203.902344c4.21875 0 7.644532-3.425781 7.644532-7.644531 0-4.234375-3.425782-7.648437-7.644532-7.648437zm0 0"/><path d="m474.808594 449.929688h-54.59375c-4.230469 0-7.648438 3.414062-7.648438 7.648437 0 4.21875 3.417969 7.644531 7.648438 7.644531h54.59375c6.75 0 12.242187 5.484375 12.242187 12.246094 0 6.746094-5.492187 12.242188-12.242187 12.242188h-14.476563c-4.230469 0-7.648437 3.414062-7.648437 7.648437 0 4.21875 3.417968 7.644531 7.648437 7.644531h14.476563c15.179687 0 27.535156-12.355468 27.535156-27.535156 0-15.191406-12.355469-27.539062-27.535156-27.539062zm0 0"/><path d="m162.242188 359.554688 18.65625 10.769531 6.789062 31.707031c.769531 3.589844 3.941406 6.046875 7.46875 6.046875.53125 0 1.070312-.054687 1.609375-.171875 4.128906-.882812 6.761719-4.945312 5.875-9.074219l-3.898437-18.203125 23.457031 13.542969c1.203125.695313 2.519531 1.023437 3.816406 1.023437 2.640625 0 5.210937-1.371093 6.628906-3.824218 2.109375-3.65625.859375-8.332032-2.800781-10.445313l-23.457031-13.539062 17.714843-5.726563c4.015626-1.296875 6.222657-5.609375 4.921876-9.625-1.296876-4.019531-5.609376-6.21875-9.625-4.925781l-30.855469 9.972656-18.652344-10.769531 17.710937-5.722656c4.015626-1.300782 6.222657-5.609375 4.921876-9.628906-1.296876-4.015626-5.609376-6.21875-9.625-4.921876l-30.855469 9.972657-19.914063-11.5 19.914063-11.5 30.855469 9.972656c4.011718 1.296875 8.328124-.902344 9.628906-4.921875 1.296875-4.019531-.90625-8.332031-4.925782-9.628906l-17.710937-5.726563 18.652344-10.765625c32.695312 10.429688 31.058593 10.34375 33.207031 10.34375 8.644531 0 10.644531-12.242187 2.351562-14.925781l-17.710937-5.722656 23.457031-13.542969c3.65625-2.113281 4.910156-6.789062 2.796875-10.445312s-6.789062-4.90625-10.445312-2.796876l-23.453125 13.539063 3.898437-18.199219c.882813-4.128906-1.746093-8.191406-5.878906-9.078125-4.128906-.882812-8.191406 1.746094-9.078125 5.875l-6.789062 31.707031-18.652344 10.769532 3.898437-18.199219c.882813-4.128906-1.746093-8.195313-5.875-9.078125-4.136719-.886719-8.195312 1.746094-9.082031 5.875l-6.789062 31.707031-19.917969 11.496094v-22.996094l24.066406-21.734375c3.132813-2.832031 3.378906-7.667968.546875-10.800781-2.828125-3.132813-7.664062-3.378906-10.796875-.546875l-13.816406 12.476562v-21.542968l24.066406-21.734375c3.132813-2.828125 3.378906-7.664063.546875-10.796875-2.828125-3.136719-7.664062-3.378906-10.796875-.550782l-13.816406 12.476563v-27.085937c0-4.222657-3.421875-7.648438-7.644531-7.648438-4.222657 0-7.644532 3.425781-7.644532 7.648438v27.085937l-13.816406-12.476563c-3.128906-2.828124-7.964844-2.585937-10.796875.546876-2.832031 3.136718-2.585937 7.96875.546875 10.800781l24.066406 21.734375v21.542968l-13.816406-12.480468c-3.128906-2.828125-7.964844-2.582032-10.796875.550781s-2.585937 7.96875.546875 10.800781l24.066406 21.734375v22.996094l-19.917968-11.496094-6.789063-31.707031c-.886719-4.132812-4.949219-6.761719-9.078125-5.878906-4.128906.886718-6.761719 4.949218-5.875 9.078125l3.898438 18.203125-18.65625-10.769532-6.789063-31.707031c-.886719-4.132812-4.953125-6.761719-9.078125-5.878906-4.132812.886719-6.761719 4.949219-5.878906 9.078125l3.898437 18.203125-23.453125-13.542969c-3.660156-2.109375-8.335937-.859375-10.445312 2.800782-2.113282 3.65625-.859375 8.332031 2.796875 10.441406l23.457031 13.542968-17.710938 5.726563c-4.019531 1.296875-6.222656 5.609375-4.925781 9.625 1.296875 4.011719 5.597657 6.226563 9.628907 4.925781l30.855468-9.972656 18.652344 10.769531-17.710938 5.722657c-8.285156 2.679687-6.300781 14.925781 2.347657 14.925781 2.152343 0 .574219.066406 33.210937-10.34375l19.914063 11.5-19.914063 11.496093-30.855468-9.972656c-4.015626-1.296875-8.328126.90625-9.628907 4.925782-1.296875 4.015624.910157 8.328124 4.925781 9.625l17.710938 5.726562-18.652344 10.769531-30.855468-9.972656c-4.015626-1.300781-8.328126.90625-9.625 4.921875-1.300782 4.019531.90625 8.328125 4.921874 9.628906l17.710938 5.722656-23.457031 13.542969c-3.65625 2.113281-4.910157 6.789063-2.796875 10.445313 2.117187 3.675781 6.804687 4.902344 10.441406 2.800781l23.457031-13.542969-3.898437 18.203125c-1.015625 4.75 2.605468 9.246094 7.484375 9.246094 3.53125 0 6.703125-2.457031 7.46875-6.046875l6.792969-31.707031 18.652343-10.769531-3.898437 18.203124c-1.015625 4.75 2.609375 9.25 7.484375 9.25 3.53125 0 6.703125-2.457031 7.472656-6.050781l6.789063-31.707031 19.914062-11.496094v22.996094l-24.0625 21.734375c-5.203125 4.699219-1.824219 13.320313 5.125 13.320313 4.96875 0 6.167969-3.664063 18.9375-14.449219v21.539062l-24.066406 21.738281c-3.132813 2.828126-3.375 7.664063-.546875 10.796876 2.835937 3.140624 7.671875 3.375 10.800781.550781l13.816406-12.476563v27.085938c0 4.222656 3.421875 7.644531 7.644532 7.644531 4.222656 0 7.644531-3.421875 7.644531-7.644531v-27.085938l13.816406 12.476563c3.132813 2.832031 7.96875 2.585937 10.796875-.546875 2.832031-3.136719 2.585938-7.96875-.546875-10.800782l-24.066406-21.734374v-21.542969l13.816406 12.476562c3.132813 2.832031 7.96875 2.585938 10.796875-.546875 2.832031-3.132812 2.585938-7.96875-.546875-10.800781l-24.066406-21.734375v-22.996094l19.914062 11.496094 6.792969 31.710938c.882812 4.121093 4.941406 6.757812 9.078125 5.875 4.128906-.886719 6.761719-4.949219 5.875-9.078126zm0 0"/></svg>